<?xml version="1.0" standalone="no"?>
<!DOCTYPE svg PUBLIC "-//W3C//DTD SVG 20010904//EN"
 "http://www.w3.org/TR/2001/REC-SVG-20010904/DTD/svg10.dtd">
<svg version="1.0" xmlns="http://www.w3.org/2000/svg"
 width="200.000000pt" height="67.000000pt" viewBox="0 0 200.000000 67.000000"
 preserveAspectRatio="xMidYMid meet">
<metadata>
Created by potrace 1.10, written by Peter Selinger 2001-2011
</metadata>
<g transform="translate(0.000000,67.000000) scale(0.100000,-0.100000)"
fill="#ffff00" stroke="none">
<path d="M168 557 c-63 -36 -111 -72 -118 -85 -5 -13 -10 -79 -10 -147 0 -115
2 -126 23 -148 28 -31 215 -137 240 -137 11 0 69 28 130 63 137 78 140 83 135
248 -2 76 -7 121 -16 132 -24 29 -221 137 -249 137 -16 0 -75 -27 -135 -63z
m247 -92 c29 -28 34 -88 10 -122 -17 -25 -71 -43 -127 -43 -34 0 -38 -3 -38
-27 0 -14 7 -34 16 -44 24 -26 9 -39 -46 -39 -55 0 -70 13 -46 39 24 26 23
209 -1 226 -34 25 -4 35 103 35 98 0 107 -2 129 -25z"/>
<path d="M260 400 l0 -50 48 0 c60 0 75 10 75 50 0 40 -15 50 -75 50 l-48 0 0
-50z"/>
<path d="M730 336 c0 -79 3 -96 15 -96 10 0 15 10 15 30 0 28 2 30 38 30 49 0
82 23 82 59 0 48 -21 64 -89 69 l-61 4 0 -96z m114 58 c36 -36 9 -74 -53 -74
-30 0 -31 1 -31 45 0 45 0 45 34 45 19 0 42 -7 50 -16z"/>
<path d="M920 336 c0 -79 3 -96 15 -96 10 0 15 10 15 30 0 26 4 30 28 30 18 0
35 -10 54 -32 31 -38 48 -33 22 6 -15 25 -15 28 0 45 20 22 21 61 2 86 -10 13
-30 20 -75 23 l-61 4 0 -96z m114 58 c36 -36 9 -74 -53 -74 -30 0 -31 1 -31
45 0 45 0 45 34 45 19 0 42 -7 50 -16z"/>
<path d="M1129 401 c-81 -82 17 -200 121 -146 60 31 55 136 -7 164 -43 20 -82
13 -114 -18z m115 -12 c51 -40 19 -129 -46 -129 -36 0 -78 40 -78 75 0 33 41
75 73 75 13 0 36 -9 51 -21z"/>
<path d="M1320 420 c0 -5 16 -10 35 -10 l36 0 -3 -66 c-3 -76 -21 -99 -58 -77
-11 8 -21 9 -25 3 -7 -12 27 -30 59 -30 35 0 46 26 46 114 l0 76 -45 0 c-25 0
-45 -4 -45 -10z"/>
<path d="M1460 335 l0 -95 70 0 c40 0 70 4 70 10 0 6 -25 10 -55 10 l-55 0 0
35 c0 35 0 35 45 35 25 0 45 5 45 10 0 6 -20 10 -45 10 -43 0 -45 1 -45 30 0
29 1 30 50 30 28 0 50 5 50 10 0 6 -28 10 -65 10 l-65 0 0 -95z"/>
<path d="M1659 401 c-21 -22 -29 -39 -29 -66 0 -49 44 -95 92 -95 36 0 78 23
65 36 -4 4 -13 2 -19 -4 -20 -20 -67 -14 -93 13 -32 31 -32 69 0 100 26 27 54
31 87 14 27 -14 38 -1 14 17 -34 24 -84 18 -117 -15z"/>
<path d="M1805 420 c-4 -6 8 -10 29 -10 l36 0 0 -85 c0 -50 4 -85 10 -85 6 0
10 35 10 85 l0 85 35 0 c19 0 35 5 35 10 0 6 -31 10 -74 10 -41 0 -78 -4 -81
-10z"/>
</g>
</svg>
